<mxfile host="app.diagrams.net" agent="Mozilla/5.0 (Macintosh; Intel Mac OS X 10_15_7) AppleWebKit/537.36 (KHTML, like Gecko) Chrome/131.0.0.0 Safari/537.36" version="25.0.3">
  <diagram name="Page-1" id="BFc_ILYRormKyntp3HMk">
    <mxGraphModel dx="532" dy="338" grid="1" gridSize="10" guides="1" tooltips="1" connect="1" arrows="1" fold="1" page="1" pageScale="1" pageWidth="827" pageHeight="1169" math="0" shadow="0">
      <root>
        <mxCell id="0" />
        <mxCell id="1" parent="0" />
        <mxCell id="iveXUdIPzsAHkFSjq9wM-1" value="ChipIn" style="ellipse;whiteSpace=wrap;html=1;aspect=fixed;" vertex="1" parent="1">
          <mxGeometry x="300" y="240" width="100" height="100" as="geometry" />
        </mxCell>
        <mxCell id="iveXUdIPzsAHkFSjq9wM-3" style="edgeStyle=orthogonalEdgeStyle;rounded=0;orthogonalLoop=1;jettySize=auto;html=1;exitX=0.5;exitY=1;exitDx=0;exitDy=0;entryX=0;entryY=0.5;entryDx=0;entryDy=0;curved=1;" edge="1" parent="1" source="iveXUdIPzsAHkFSjq9wM-2" target="iveXUdIPzsAHkFSjq9wM-1">
          <mxGeometry relative="1" as="geometry" />
        </mxCell>
        <mxCell id="iveXUdIPzsAHkFSjq9wM-6" value="User Data&lt;br&gt;(username, nickname, email)" style="edgeLabel;html=1;align=center;verticalAlign=middle;resizable=0;points=[];" vertex="1" connectable="0" parent="iveXUdIPzsAHkFSjq9wM-3">
          <mxGeometry x="-0.5544" y="15" relative="1" as="geometry">
            <mxPoint as="offset" />
          </mxGeometry>
        </mxCell>
        <mxCell id="iveXUdIPzsAHkFSjq9wM-2" value="User" style="whiteSpace=wrap;html=1;aspect=fixed;" vertex="1" parent="1">
          <mxGeometry x="170" y="150" width="60" height="60" as="geometry" />
        </mxCell>
        <mxCell id="iveXUdIPzsAHkFSjq9wM-14" style="edgeStyle=orthogonalEdgeStyle;rounded=0;orthogonalLoop=1;jettySize=auto;html=1;entryX=1;entryY=0.5;entryDx=0;entryDy=0;curved=1;exitX=0.5;exitY=1;exitDx=0;exitDy=0;" edge="1" parent="1" source="iveXUdIPzsAHkFSjq9wM-9" target="iveXUdIPzsAHkFSjq9wM-1">
          <mxGeometry relative="1" as="geometry" />
        </mxCell>
        <mxCell id="iveXUdIPzsAHkFSjq9wM-15" value="Transaction Details&lt;br&gt;(card number, balance)" style="edgeLabel;html=1;align=center;verticalAlign=middle;resizable=0;points=[];" vertex="1" connectable="0" parent="iveXUdIPzsAHkFSjq9wM-14">
          <mxGeometry x="0.0789" y="-21" relative="1" as="geometry">
            <mxPoint x="2" y="-19" as="offset" />
          </mxGeometry>
        </mxCell>
        <mxCell id="iveXUdIPzsAHkFSjq9wM-9" value="Bank" style="whiteSpace=wrap;html=1;aspect=fixed;" vertex="1" parent="1">
          <mxGeometry x="480" y="150" width="60" height="60" as="geometry" />
        </mxCell>
      </root>
    </mxGraphModel>
  </diagram>
</mxfile>
